<?xml version="1.0" encoding="utf-8"?>

<svg version="1.1" id="Icons" xmlns="http://www.w3.org/2000/svg" xmlns:xlink="http://www.w3.org/1999/xlink" x="0px" y="0px"
	 viewBox="0 0 32 32" style="enable-background:new 0 0 32 32;" xml:space="preserve">
<style type="text/css">
	.st0{fill:none;stroke:#000000;stroke-width:2;stroke-linecap:round;stroke-linejoin:round;stroke-miterlimit:10;}
	.st1{fill:none;stroke:#000000;stroke-width:2;stroke-linejoin:round;stroke-miterlimit:10;}
</style>
<path class="st0" d="M21.12,12c-3.75,0-6.88,2.66-7.67,6.22h-0.64c-2.65,0-4.81,2.2-4.81,4.89S10.17,28,12.81,28h1.31h7
	c4.35,0,7.88-3.58,7.88-8S25.47,12,21.12,12z"/>
<path class="st0" d="M20.99,12c-0.26-4.46-3.96-8-8.49-8c-0.73,0-1.43,0.1-2.1,0.27c1.92,0.65,3.32,2.44,3.32,4.58
	c0,2.68-2.17,4.86-4.86,4.86c-2.14,0-3.94-1.39-4.58-3.32C4.1,11.07,4,11.77,4,12.5c0,3.42,2.02,6.37,4.94,7.72"/>
</svg>
