<?xml version="1.0" ?><svg width="28px" height="28px" viewBox="0 0 28 28" fill="none" xmlns="http://www.w3.org/2000/svg"><path clip-rule="evenodd" d="M12.5446 2C8.76573 2 5.6987 4.82879 4.7903 8.5252C2.59347 8.60542 1 10.5802 1 12.7837C1 14.7089 2.2227 16.6821 4.12305 17.1115C4.19538 17.1278 4.26931 17.1361 4.34347 17.1361H4.95222C5.01257 17.1361 5.07266 17.1345 5.13247 17.1315L23.5519 17.126C23.5866 17.1296 23.6215 17.1315 23.6565 17.1315H24.2424C25.8636 17.1315 27 15.7041 27 14.1748C27 12.7536 26.0185 11.4205 24.5786 11.2391C24.2013 9.01574 22.4314 7.21242 20.1381 7.21242C20.0535 7.21242 19.966 7.21493 19.8773 7.2228C18.6402 4.18954 15.864 2 12.5446 2ZM6.58917 9.74727C7.05809 6.40727 9.61832 4 12.5446 4C15.198 4 17.5424 5.97052 18.3141 8.83468C18.3926 9.12615 18.5986 9.36655 18.8746 9.48882C19.1506 9.61109 19.467 9.60215 19.7357 9.4645C19.9021 9.3792 20.0249 9.29799 20.1227 9.22568L20.1405 9.21242C21.4305 9.21396 22.6533 10.4142 22.6533 12.1257C22.6533 12.1795 22.652 12.233 22.6495 12.286C22.6336 12.6257 22.7914 12.9502 23.0685 13.1474C23.3455 13.3446 23.7038 13.3876 24.0195 13.2613C24.0904 13.233 24.1646 13.2182 24.2424 13.2182C24.5626 13.2182 25 13.5429 25 14.1748C25 14.8068 24.5626 15.1315 24.2424 15.1315H23.7468C23.7119 15.1278 23.6768 15.126 23.6416 15.126L5.10427 15.1315C5.08419 15.1315 5.06411 15.1321 5.04407 15.1333C5.01375 15.1351 4.98314 15.1361 4.95222 15.1361H4.47159C3.7285 14.9081 3 13.9649 3 12.7837C3 11.4314 3.96199 10.5227 4.92933 10.5227C5.07356 10.5227 5.21309 10.5411 5.34698 10.576C5.62301 10.6478 5.91658 10.5984 6.15385 10.4401C6.39113 10.2818 6.54951 10.0297 6.58917 9.74727Z" fill="black" fill-rule="evenodd"/><path d="M8.93185 18.8694C8.54988 18.6473 8.06208 18.778 7.8423 19.1613L5.27816 23.6333C5.05839 24.0166 5.18988 24.5073 5.57185 24.7294L5.85138 24.8919C6.23336 25.1139 6.72116 24.9832 6.94093 24.5999L9.50507 20.1279C9.72484 19.7447 9.59336 19.2539 9.21138 19.0319L8.93185 18.8694Z" fill="black"/><path d="M13.3443 19.1613C13.564 18.778 14.0518 18.6473 14.4338 18.8694L14.7133 19.0319C15.0953 19.2539 15.2268 19.7447 15.007 20.1279L12.4429 24.5999C12.2231 24.9832 11.7353 25.1139 11.3533 24.8919L11.0738 24.7294C10.6918 24.5073 10.5603 24.0166 10.7801 23.6333L13.3443 19.1613Z" fill="black"/><path d="M19.9377 18.8694C19.5557 18.6473 19.0679 18.778 18.8482 19.1613L16.284 23.6333C16.0643 24.0166 16.1957 24.5073 16.5777 24.7294L16.8572 24.8919C17.2392 25.1139 17.727 24.9832 17.9468 24.5999L20.5109 20.1279C20.7307 19.7447 20.5992 19.2539 20.2172 19.0319L19.9377 18.8694Z" fill="black"/></svg>