<?xml version="1.0" encoding="iso-8859-1"?>
<!-- Generator: Adobe Illustrator 19.0.0, SVG Export Plug-In . SVG Version: 6.00 Build 0)  -->
<svg version="1.1" id="Layer_1" xmlns="http://www.w3.org/2000/svg" xmlns:xlink="http://www.w3.org/1999/xlink" x="0px" y="0px"
	 viewBox="0 0 512.001 512.001" style="enable-background:new 0 0 512.001 512.001;" xml:space="preserve">
<g>
	<path style="fill:#736056;" d="M354.798,371.736c-4.273,0-8.546-1.631-11.806-4.893l-64.993-64.987
		c-6.523-6.517-6.523-17.091,0-23.614c6.523-6.523,17.091-6.523,23.614,0l64.993,64.987c6.523,6.517,6.523,17.091,0,23.614
		C363.344,370.105,359.071,371.736,354.798,371.736z"/>
	<path style="fill:#736056;" d="M277.999,301.856l64.993,64.987c3.262,3.262,7.535,4.893,11.806,4.893
		c4.272,0,8.542-1.63,11.804-4.891l-88.603-88.603C271.475,284.766,271.475,295.339,277.999,301.856z"/>
</g>
<path style="fill:#BDDEFF;" d="M313.426,313.667c-71.602,71.602-188.117,71.602-259.722-0.003s-71.602-188.117,0-259.719
	s188.112-71.607,259.719,0S385.028,242.065,313.426,313.667z"/>
<path style="fill:#99CCFF;" d="M53.704,313.663c71.607,71.607,188.12,71.607,259.722,0.004L53.704,53.945
	C-17.9,125.547-17.903,242.057,53.704,313.663z"/>
<path style="fill:#D7EBFF;" d="M289.81,290.051c-58.58,58.58-153.906,58.58-212.49-0.003s-58.58-153.906,0-212.487
	s153.902-58.583,212.487,0S348.39,231.471,289.81,290.051z"/>
<path style="fill:#C4E2FF;" d="M77.32,77.561c-58.579,58.58-58.583,153.902,0,212.485s153.91,58.583,212.49,0.004L77.32,77.561z"/>
<path style="fill:#A6673A;" d="M333.902,378.193l-2.003,24.27l101.087,101.198c10.91,10.799,28.499,10.799,39.409,0l31.507-31.506
	c10.799-10.91,10.799-28.5,0-39.41L402.703,331.658l-24.269,2.004L333.902,378.193z"/>
<path style="fill:#99522E;" d="M472.395,503.661l15.513-15.513l-131.98-131.98l-22.025,22.025l-2.003,24.27l101.087,101.198
	C443.896,514.459,461.484,514.459,472.395,503.661z"/>
<path style="fill:#FF9F19;" d="M402.703,331.658l-70.804,70.805l-9.575-9.574c-10.91-10.799-10.91-28.5,0-39.299l31.507-31.506
	c10.799-10.91,28.499-10.91,39.299,0L402.703,331.658z"/>
<path style="fill:#F28618;" d="M337.836,338.077l-15.513,15.513c-10.91,10.799-10.91,28.5,0,39.299l9.575,9.574l35.161-35.162
	L337.836,338.077z"/>
<g>
</g>
<g>
</g>
<g>
</g>
<g>
</g>
<g>
</g>
<g>
</g>
<g>
</g>
<g>
</g>
<g>
</g>
<g>
</g>
<g>
</g>
<g>
</g>
<g>
</g>
<g>
</g>
<g>
</g>
</svg>
